<svg xmlns="http://www.w3.org/2000/svg" xmlns:xlink="http://www.w3.org/1999/xlink" zoomAndPan="magnify" preserveAspectRatio="xMidYMid meet" version="1.0" viewBox="54.1 96.18 266.83 182.15"><defs><g/><clipPath id="id1"><path d="M 158 96.183594 L 247.59375 96.183594 L 247.59375 210 L 158 210 Z M 158 96.183594 " clip-rule="nonzero"/></clipPath><clipPath id="id2"><path d="M 127.59375 120 L 174 120 L 174 161 L 127.59375 161 Z M 127.59375 120 " clip-rule="nonzero"/></clipPath></defs><g clip-path="url(#id1)"><path fill="rgb(100%, 100%, 100%)" d="M 247.59375 111.898438 C 247.59375 120.574219 240.53125 127.609375 231.820312 127.609375 C 228.523438 127.609375 225.464844 126.601562 222.933594 124.878906 C 211.40625 131.960938 208.507812 140.984375 207.785156 145.195312 C 210.257812 149.222656 211.683594 153.957031 211.683594 159.023438 C 211.683594 166.332031 208.714844 172.949219 203.917969 177.75 C 204.070312 180.789062 205.335938 186.089844 211.398438 191.132812 C 212.394531 191.003906 213.429688 191.035156 214.46875 191.257812 C 219.429688 192.300781 222.597656 197.15625 221.546875 202.09375 C 220.5 207.035156 215.625 210.191406 210.667969 209.144531 C 205.710938 208.101562 202.542969 203.25 203.589844 198.308594 C 203.988281 196.441406 204.933594 194.828125 206.222656 193.597656 C 203.742188 186.703125 199.390625 183.867188 196.9375 182.773438 C 193.355469 184.558594 189.3125 185.566406 185.035156 185.566406 C 171.574219 185.566406 160.449219 175.625 158.644531 162.710938 C 159.488281 162.65625 160.3125 162.46875 161.097656 162.132812 L 173.90625 156.671875 C 175.746094 155.886719 177.167969 154.4375 177.914062 152.585938 C 178.660156 150.734375 178.636719 148.707031 177.847656 146.875 L 172.910156 135.390625 C 176.550781 133.535156 180.664062 132.480469 185.035156 132.480469 C 188.820312 132.480469 192.421875 133.273438 195.683594 134.691406 C 200.480469 133.71875 209.984375 130.144531 216.925781 117.089844 C 216.355469 115.464844 216.042969 113.71875 216.042969 111.902344 C 216.046875 103.21875 223.109375 96.1875 231.820312 96.1875 C 240.53125 96.1875 247.59375 103.21875 247.59375 111.898438 Z M 247.59375 111.898438 " fill-opacity="1" fill-rule="nonzero"/></g><g clip-path="url(#id2)"><path fill="rgb(21.958923%, 71.369934%, 100%)" d="M 173.375 148.777344 C 173.945312 150.105469 173.328125 151.644531 171.996094 152.210938 L 159.1875 157.671875 C 157.855469 158.242188 156.3125 157.625 155.742188 156.300781 L 150.257812 143.539062 C 149.6875 142.210938 150.304688 140.671875 151.636719 140.105469 L 164.445312 134.640625 C 165.777344 134.074219 167.320312 134.691406 167.890625 136.015625 Z M 157.609375 121.539062 C 157.339844 120.910156 156.609375 120.617188 155.976562 120.886719 L 149.902344 123.480469 C 149.269531 123.75 148.980469 124.476562 149.25 125.105469 L 151.851562 131.15625 C 152.121094 131.785156 152.851562 132.074219 153.484375 131.804688 L 159.554688 129.214844 C 160.1875 128.945312 160.480469 128.21875 160.210938 127.589844 Z M 146.726562 150.761719 C 146.484375 150.195312 145.828125 149.933594 145.261719 150.175781 L 139.820312 152.496094 C 139.257812 152.734375 138.992188 153.390625 139.234375 153.953125 L 141.5625 159.371094 C 141.804688 159.933594 142.460938 160.195312 143.023438 159.957031 L 148.464844 157.636719 C 149.03125 157.394531 149.292969 156.742188 149.054688 156.179688 Z M 141.222656 130.089844 C 140.796875 129.09375 139.640625 128.632812 138.640625 129.058594 L 129.050781 133.148438 C 128.050781 133.574219 127.589844 134.726562 128.015625 135.71875 L 132.125 145.273438 C 132.550781 146.269531 133.707031 146.730469 134.703125 146.304688 L 144.296875 142.214844 C 145.296875 141.789062 145.757812 140.636719 145.332031 139.644531 Z M 141.222656 130.089844 " fill-opacity="1" fill-rule="nonzero"/></g><g fill="rgb(21.958923%, 71.369934%, 100%)" fill-opacity="1"><g transform="translate(50.94121, 257.105374)"><g><path d="M 3.15625 0 L 10.488281 0 L 10.488281 -11.027344 L 20.917969 -11.027344 L 20.917969 0 L 28.25 0 L 28.25 -28.289062 L 20.917969 -28.289062 L 20.917969 -17.339844 L 10.488281 -17.339844 L 10.488281 -28.289062 L 3.15625 -28.289062 Z M 3.15625 0 "/></g></g></g><g fill="rgb(21.958923%, 71.369934%, 100%)" fill-opacity="1"><g transform="translate(84.987094, 257.105374)"><g><path d="M 15.953125 0.386719 C 24.515625 0.386719 30.65625 -5.40625 30.65625 -14.144531 C 30.65625 -22.9375 24.515625 -28.695312 15.953125 -28.695312 C 7.410156 -28.695312 1.269531 -22.9375 1.269531 -14.144531 C 1.269531 -5.40625 7.410156 0.386719 15.953125 0.386719 Z M 15.953125 -6.273438 C 11.699219 -6.273438 8.542969 -9.296875 8.542969 -14.144531 C 8.542969 -18.996094 11.699219 -22.035156 15.953125 -22.035156 C 20.226562 -22.035156 23.421875 -18.996094 23.421875 -14.144531 C 23.421875 -9.296875 20.226562 -6.273438 15.953125 -6.273438 Z M 15.953125 -6.273438 "/></g></g></g><g fill="rgb(21.958923%, 71.369934%, 100%)" fill-opacity="1"><g transform="translate(119.552552, 257.105374)"><g><path d="M 10.488281 -6.425781 L 10.488281 -28.289062 L 3.15625 -28.289062 L 3.15625 0 L 18.761719 0 L 18.761719 -6.425781 Z M 10.488281 -6.425781 "/></g></g></g><g fill="rgb(21.958923%, 71.369934%, 100%)" fill-opacity="1"><g transform="translate(141.552169, 257.105374)"><g><path d="M 22.59375 0 L 30.039062 0 L 19.628906 -28.289062 L 10.605469 -28.289062 L 0.191406 0 L 7.640625 0 L 9.449219 -5.234375 L 20.765625 -5.234375 Z M 11.546875 -11.277344 L 15.105469 -21.515625 L 18.667969 -11.277344 Z M 11.546875 -11.277344 "/></g></g></g><g fill="rgb(21.958923%, 71.369934%, 100%)" fill-opacity="1"><g transform="translate(174.424222, 257.105374)"><g><path d="M 15.953125 0.386719 C 22.707031 0.386719 27.980469 -3.15625 29.867188 -8.910156 L 23.015625 -11.316406 C 22.074219 -8.160156 19.359375 -6.273438 15.953125 -6.273438 C 11.699219 -6.273438 8.542969 -9.296875 8.542969 -14.144531 C 8.542969 -18.996094 11.699219 -22.035156 15.953125 -22.035156 C 19.359375 -22.035156 22.074219 -20.148438 23.015625 -16.992188 L 29.867188 -19.398438 C 27.980469 -25.152344 22.707031 -28.695312 15.953125 -28.695312 C 7.410156 -28.695312 1.269531 -22.9375 1.269531 -14.144531 C 1.269531 -5.371094 7.410156 0.386719 15.953125 0.386719 Z M 15.953125 0.386719 "/></g></g></g><g fill="rgb(21.958923%, 71.369934%, 100%)" fill-opacity="1"><g transform="translate(207.719627, 257.105374)"><g><path d="M 3.15625 0 L 10.488281 0 L 10.488281 -11.027344 L 20.917969 -11.027344 L 20.917969 0 L 28.25 0 L 28.25 -28.289062 L 20.917969 -28.289062 L 20.917969 -17.339844 L 10.488281 -17.339844 L 10.488281 -28.289062 L 3.15625 -28.289062 Z M 3.15625 0 "/></g></g></g><g fill="rgb(21.958923%, 71.369934%, 100%)" fill-opacity="1"><g transform="translate(241.765511, 257.105374)"><g><path d="M 22.59375 0 L 30.039062 0 L 19.628906 -28.289062 L 10.605469 -28.289062 L 0.191406 0 L 7.640625 0 L 9.449219 -5.234375 L 20.765625 -5.234375 Z M 11.546875 -11.277344 L 15.105469 -21.515625 L 18.667969 -11.277344 Z M 11.546875 -11.277344 "/></g></g></g><g fill="rgb(21.958923%, 71.369934%, 100%)" fill-opacity="1"><g transform="translate(274.637576, 257.105374)"><g><path d="M 3.15625 0 L 10.488281 0 L 10.488281 -28.289062 L 3.15625 -28.289062 Z M 3.15625 0 "/></g></g></g><g fill="rgb(21.958923%, 71.369934%, 100%)" fill-opacity="1"><g transform="translate(290.921968, 257.105374)"><g><path d="M 22.667969 -28.289062 L 22.667969 -10.027344 L 11.777344 -28.289062 L 3.15625 -28.289062 L 3.15625 0 L 10.488281 0 L 10.488281 -18.359375 L 21.285156 0 L 30.003906 0 L 30.003906 -28.289062 Z M 22.667969 -28.289062 "/></g></g></g><g fill="rgb(100%, 100%, 100%)" fill-opacity="1"><g transform="translate(140.990488, 274.914973)"><g><path d="M 13.929688 -10.613281 C 13.59375 -10.800781 13.148438 -10.585938 12.878906 -10.085938 C 12.648438 -9.640625 12.445312 -9.183594 12.285156 -8.699219 C 11.773438 -7.078125 11.273438 -5.460938 10.773438 -3.828125 C 10.71875 -3.65625 10.652344 -3.492188 10.585938 -3.316406 C 10.261719 -4.113281 10.058594 -4.921875 9.84375 -5.71875 C 9.507812 -7.027344 9.167969 -8.332031 8.777344 -9.628906 C 8.628906 -10.140625 8.308594 -10.585938 7.6875 -10.625 C 7.078125 -10.667969 6.917969 -10.300781 6.703125 -9.832031 C 6.351562 -9.019531 6.3125 -8.183594 6.109375 -7.335938 C 5.796875 -6.082031 5.355469 -4.789062 5.070312 -3.519531 C 4.949219 -2.964844 4.734375 -2.425781 4.558594 -1.886719 C 4.503906 -1.886719 4.449219 -1.902344 4.410156 -1.902344 C 4.261719 -2.183594 4.074219 -2.46875 3.964844 -2.765625 C 3.359375 -4.464844 2.777344 -6.175781 2.171875 -7.875 C 1.902344 -8.671875 1.605469 -9.453125 1.28125 -10.234375 C 1.226562 -10.355469 0.957031 -10.503906 0.835938 -10.476562 C 0.703125 -10.4375 0.566406 -10.195312 0.554688 -10.03125 C 0.527344 -9.789062 0.578125 -9.535156 0.648438 -9.292969 C 0.972656 -7.996094 1.308594 -6.703125 1.644531 -5.40625 C 2.089844 -3.761719 2.644531 -2.15625 3.53125 -0.6875 C 4.085938 0.214844 4.949219 0.230469 5.515625 -0.660156 C 5.839844 -1.1875 6.148438 -1.78125 6.296875 -2.375 C 6.6875 -3.964844 7.011719 -5.582031 7.347656 -7.1875 C 7.445312 -7.59375 7.632812 -7.929688 7.6875 -7.6875 C 7.957031 -6.40625 8.441406 -5.097656 8.792969 -3.816406 C 9.074219 -2.75 9.210938 -1.699219 9.613281 -0.660156 C 9.789062 -0.230469 10.195312 0.0390625 10.707031 0 C 11.191406 -0.0390625 11.476562 -0.363281 11.652344 -0.796875 C 11.746094 -1.023438 11.828125 -1.269531 11.894531 -1.511719 C 12.21875 -2.589844 12.515625 -3.667969 12.835938 -4.734375 C 13.308594 -6.339844 13.78125 -7.914062 14.253906 -9.519531 C 14.375 -9.9375 14.386719 -10.355469 13.929688 -10.613281 Z M 13.929688 -10.613281 "/></g></g></g><g fill="rgb(100%, 100%, 100%)" fill-opacity="1"><g transform="translate(156.933997, 274.914973)"><g><path d="M 6.675781 -1.523438 C 6.484375 -2.84375 6.285156 -4.167969 6.082031 -5.5 C 6.042969 -5.824219 6 -6.203125 5.636719 -6.269531 C 5.394531 -6.324219 5.097656 -6.175781 4.828125 -6.121094 C 3.910156 -6.445312 3.398438 -6.433594 2.480469 -5.878906 C 2.15625 -5.675781 1.832031 -5.433594 1.550781 -5.179688 C 0.621094 -4.328125 0.296875 -2.898438 0.742188 -1.832031 C 1.214844 -0.714844 2.320312 -0.296875 3.382812 -0.863281 C 3.75 -1.050781 4.074219 -1.335938 4.382812 -1.617188 C 4.625 -1.832031 4.8125 -2.117188 5.082031 -2.441406 C 5.125 -2.277344 5.125 -2.171875 5.164062 -2.089844 C 5.367188 -1.523438 5.554688 -0.945312 5.824219 -0.40625 C 5.894531 -0.257812 6.242188 -0.109375 6.390625 -0.160156 C 6.566406 -0.230469 6.730469 -0.5 6.769531 -0.703125 C 6.808594 -0.957031 6.714844 -1.242188 6.675781 -1.523438 Z M 4.679688 -4.34375 C 4.394531 -3.492188 3.925781 -2.75 3.238281 -2.171875 C 2.941406 -1.929688 2.601562 -1.671875 2.210938 -1.886719 C 1.820312 -2.105469 1.78125 -2.507812 1.753906 -2.820312 C 1.765625 -3.898438 2.898438 -5.164062 3.871094 -5.273438 C 4.53125 -5.355469 4.882812 -4.949219 4.679688 -4.34375 Z M 4.679688 -4.34375 "/></g></g></g><g fill="rgb(100%, 100%, 100%)" fill-opacity="1"><g transform="translate(165.317196, 274.914973)"><g><path d="M 6.164062 -6.109375 C 6.054688 -6.175781 5.785156 -6.09375 5.664062 -5.988281 C 5.421875 -5.8125 5.21875 -5.570312 5.03125 -5.339844 C 4.152344 -4.246094 3.289062 -3.140625 2.359375 -1.96875 C 2.210938 -2.398438 2.050781 -2.792969 1.957031 -3.195312 C 1.792969 -3.855469 1.6875 -4.53125 1.5625 -5.191406 C 1.511719 -5.460938 1.429688 -5.71875 1.09375 -5.71875 C 0.769531 -5.730469 0.632812 -5.515625 0.578125 -5.230469 C 0.554688 -5.070312 0.539062 -4.894531 0.554688 -4.71875 C 0.648438 -3.425781 0.945312 -2.171875 1.523438 -1.011719 C 1.929688 -0.203125 2.546875 -0.121094 3.101562 -0.847656 C 4.125 -2.183594 5.136719 -3.546875 6.148438 -4.910156 C 6.285156 -5.109375 6.390625 -5.367188 6.417969 -5.609375 C 6.433594 -5.785156 6.296875 -6.027344 6.164062 -6.109375 Z M 6.164062 -6.109375 "/></g></g></g><g fill="rgb(100%, 100%, 100%)" fill-opacity="1"><g transform="translate(173.336531, 274.914973)"><g><path d="M 1.832031 -3.167969 C 2.535156 -3.183594 3.222656 -3.183594 3.925781 -3.195312 C 4.800781 -3.222656 5.328125 -3.574219 5.488281 -4.195312 C 5.71875 -5.152344 5.207031 -6.148438 4.246094 -6.566406 C 3.238281 -7.011719 2.292969 -6.796875 1.632812 -5.960938 C 0.875 -5.015625 0.511719 -3.9375 0.554688 -2.765625 C 0.578125 -1.699219 1.105469 -0.863281 2.105469 -0.351562 C 3.113281 0.160156 4.167969 0.109375 5.164062 -0.417969 C 5.339844 -0.511719 5.527344 -0.808594 5.488281 -0.957031 C 5.449219 -1.105469 5.125 -1.253906 4.933594 -1.269531 C 4.558594 -1.292969 4.179688 -1.199219 3.816406 -1.160156 C 2.574219 -1.023438 1.617188 -1.941406 1.765625 -3.128906 C 1.808594 -3.15625 1.820312 -3.167969 1.832031 -3.167969 Z M 2.695312 -5.527344 C 3.035156 -5.839844 3.53125 -5.824219 4.003906 -5.542969 C 4.34375 -5.328125 4.613281 -4.746094 4.449219 -4.421875 C 4.382812 -4.289062 4.152344 -4.167969 3.992188 -4.152344 C 3.304688 -4.085938 2.617188 -4.074219 1.875 -4.046875 C 2.050781 -4.613281 2.265625 -5.136719 2.695312 -5.527344 Z M 2.695312 -5.527344 "/></g></g></g><g fill="rgb(100%, 100%, 100%)" fill-opacity="1"><g transform="translate(180.479887, 274.914973)"><g/></g></g><g fill="rgb(100%, 100%, 100%)" fill-opacity="1"><g transform="translate(186.801179, 274.914973)"><g><path d="M 8.507812 -1.402344 C 8.628906 -0.996094 8.886719 -0.703125 9.34375 -0.78125 C 9.816406 -0.863281 9.964844 -1.242188 9.925781 -1.644531 C 9.882812 -2.117188 9.804688 -2.601562 9.65625 -3.046875 C 9.15625 -4.503906 8.644531 -5.972656 8.078125 -7.402344 C 7.753906 -8.226562 7.363281 -9.046875 6.878906 -9.804688 C 6.148438 -10.9375 5.125 -10.976562 4.273438 -9.910156 C 3.882812 -9.414062 3.628906 -8.792969 3.398438 -8.199219 C 2.941406 -7.039062 2.480469 -5.878906 2.128906 -4.691406 C 1.886719 -3.84375 0.917969 -3.304688 1.09375 -2.277344 C 1.105469 -2.226562 1.039062 -2.15625 1.023438 -2.105469 C 0.847656 -1.644531 0.632812 -1.199219 0.554688 -0.742188 C 0.511719 -0.527344 0.660156 -0.160156 0.847656 -0.0546875 C 1.132812 0.136719 1.292969 -0.175781 1.429688 -0.417969 C 1.765625 -1.066406 2.089844 -1.726562 2.453125 -2.359375 C 2.535156 -2.507812 2.75 -2.683594 2.914062 -2.695312 C 4.625 -2.832031 6.324219 -2.925781 8.078125 -3.046875 C 8.226562 -2.441406 8.347656 -1.914062 8.507812 -1.402344 Z M 5.5 -9.222656 C 6.566406 -7.671875 6.957031 -5.988281 7.578125 -4.421875 C 6.121094 -4.289062 4.71875 -4.167969 3.222656 -4.03125 C 4.152344 -5.664062 4.449219 -7.550781 5.5 -9.222656 Z M 5.5 -9.222656 "/></g></g></g><g fill="rgb(100%, 100%, 100%)" fill-opacity="1"><g transform="translate(198.337876, 274.914973)"><g><path d="M 5.449219 -4.570312 C 5.230469 -5.082031 4.8125 -5.5 4.300781 -5.675781 C 3.289062 -6.027344 2.601562 -5.433594 1.941406 -4.894531 C 1.753906 -4.734375 1.617188 -4.503906 1.390625 -4.234375 C 1.363281 -4.613281 1.375 -4.910156 1.308594 -5.191406 C 1.292969 -5.230469 1.28125 -5.273438 1.242188 -5.3125 C 1.09375 -5.488281 0.835938 -5.488281 0.714844 -5.285156 C 0.6875 -5.257812 0.675781 -5.230469 0.660156 -5.191406 C 0.605469 -4.910156 0.605469 -4.613281 0.605469 -4.328125 C 0.578125 -3.382812 0.566406 -2.453125 0.539062 -1.511719 C 0.539062 -1.214844 0.675781 -0.996094 0.984375 -0.957031 C 1.308594 -0.902344 1.496094 -1.078125 1.589844 -1.375 C 1.644531 -1.511719 1.632812 -1.671875 1.6875 -1.792969 C 1.980469 -2.507812 2.238281 -3.25 2.617188 -3.925781 C 2.777344 -4.234375 3.15625 -4.476562 3.492188 -4.652344 C 3.828125 -4.839844 4.234375 -4.691406 4.34375 -4.316406 C 4.492188 -3.871094 4.558594 -3.382812 4.625 -2.914062 C 4.707031 -2.320312 4.746094 -1.726562 4.828125 -1.144531 C 4.882812 -0.863281 5.042969 -0.621094 5.378906 -0.632812 C 5.71875 -0.660156 5.851562 -0.902344 5.878906 -1.199219 C 5.972656 -2.359375 5.90625 -3.507812 5.449219 -4.570312 Z M 5.449219 -4.570312 "/></g></g></g><g fill="rgb(100%, 100%, 100%)" fill-opacity="1"><g transform="translate(205.858578, 274.914973)"><g><path d="M 4.988281 -5.609375 C 4.664062 -5.730469 4.53125 -5.449219 4.410156 -5.21875 C 3.976562 -4.316406 3.558594 -3.410156 3.140625 -2.507812 C 2.980469 -2.183594 2.832031 -1.859375 2.683594 -1.539062 C 2.644531 -1.539062 2.601562 -1.539062 2.5625 -1.523438 C 2.304688 -2.117188 2.035156 -2.695312 1.808594 -3.304688 C 1.660156 -3.707031 1.617188 -4.152344 1.457031 -4.542969 C 1.390625 -4.71875 1.171875 -4.921875 0.996094 -4.949219 C 0.714844 -5.003906 0.578125 -4.761719 0.554688 -4.476562 C 0.539062 -4.328125 0.539062 -4.167969 0.566406 -4.003906 C 0.742188 -2.722656 1.199219 -1.550781 1.914062 -0.472656 C 2.035156 -0.269531 2.0625 -0.136719 1.980469 0.0664062 C 1.710938 0.726562 1.441406 1.390625 1.242188 2.0625 C 1.144531 2.375 1.144531 2.722656 1.171875 3.046875 C 1.171875 3.183594 1.335938 3.371094 1.457031 3.410156 C 1.589844 3.4375 1.820312 3.359375 1.902344 3.25 C 2.128906 2.953125 2.320312 2.628906 2.46875 2.277344 C 3.007812 0.957031 3.53125 -0.378906 4.046875 -1.710938 C 4.449219 -2.777344 4.828125 -3.855469 5.191406 -4.933594 C 5.285156 -5.207031 5.300781 -5.488281 4.988281 -5.609375 Z M 4.988281 -5.609375 "/></g></g></g><g fill="rgb(100%, 100%, 100%)" fill-opacity="1"><g transform="translate(212.718933, 274.914973)"><g><path d="M 6.042969 -3.882812 C 5.917969 -4.828125 4.664062 -5.972656 3.734375 -5.988281 C 2.050781 -6.042969 0.539062 -4.625 0.539062 -2.953125 C 0.554688 -1.644531 1.28125 -0.753906 2.5625 -0.511719 C 4.410156 -0.175781 6.296875 -2.023438 6.042969 -3.882812 Z M 3.4375 -1.832031 C 2.5625 -1.496094 1.753906 -2.0625 1.738281 -2.992188 C 1.726562 -3.949219 2.671875 -4.933594 3.640625 -4.949219 C 3.789062 -4.949219 3.9375 -4.761719 4.074219 -4.652344 C 5.03125 -3.964844 4.988281 -2.441406 3.4375 -1.832031 Z M 3.4375 -1.832031 "/></g></g></g><g fill="rgb(100%, 100%, 100%)" fill-opacity="1"><g transform="translate(220.387881, 274.914973)"><g><path d="M 5.449219 -4.570312 C 5.230469 -5.082031 4.8125 -5.5 4.300781 -5.675781 C 3.289062 -6.027344 2.601562 -5.433594 1.941406 -4.894531 C 1.753906 -4.734375 1.617188 -4.503906 1.390625 -4.234375 C 1.363281 -4.613281 1.375 -4.910156 1.308594 -5.191406 C 1.292969 -5.230469 1.28125 -5.273438 1.242188 -5.3125 C 1.09375 -5.488281 0.835938 -5.488281 0.714844 -5.285156 C 0.6875 -5.257812 0.675781 -5.230469 0.660156 -5.191406 C 0.605469 -4.910156 0.605469 -4.613281 0.605469 -4.328125 C 0.578125 -3.382812 0.566406 -2.453125 0.539062 -1.511719 C 0.539062 -1.214844 0.675781 -0.996094 0.984375 -0.957031 C 1.308594 -0.902344 1.496094 -1.078125 1.589844 -1.375 C 1.644531 -1.511719 1.632812 -1.671875 1.6875 -1.792969 C 1.980469 -2.507812 2.238281 -3.25 2.617188 -3.925781 C 2.777344 -4.234375 3.15625 -4.476562 3.492188 -4.652344 C 3.828125 -4.839844 4.234375 -4.691406 4.34375 -4.316406 C 4.492188 -3.871094 4.558594 -3.382812 4.625 -2.914062 C 4.707031 -2.320312 4.746094 -1.726562 4.828125 -1.144531 C 4.882812 -0.863281 5.042969 -0.621094 5.378906 -0.632812 C 5.71875 -0.660156 5.851562 -0.902344 5.878906 -1.199219 C 5.972656 -2.359375 5.90625 -3.507812 5.449219 -4.570312 Z M 5.449219 -4.570312 "/></g></g></g><g fill="rgb(100%, 100%, 100%)" fill-opacity="1"><g transform="translate(227.908583, 274.914973)"><g><path d="M 1.832031 -3.167969 C 2.535156 -3.183594 3.222656 -3.183594 3.925781 -3.195312 C 4.800781 -3.222656 5.328125 -3.574219 5.488281 -4.195312 C 5.71875 -5.152344 5.207031 -6.148438 4.246094 -6.566406 C 3.238281 -7.011719 2.292969 -6.796875 1.632812 -5.960938 C 0.875 -5.015625 0.511719 -3.9375 0.554688 -2.765625 C 0.578125 -1.699219 1.105469 -0.863281 2.105469 -0.351562 C 3.113281 0.160156 4.167969 0.109375 5.164062 -0.417969 C 5.339844 -0.511719 5.527344 -0.808594 5.488281 -0.957031 C 5.449219 -1.105469 5.125 -1.253906 4.933594 -1.269531 C 4.558594 -1.292969 4.179688 -1.199219 3.816406 -1.160156 C 2.574219 -1.023438 1.617188 -1.941406 1.765625 -3.128906 C 1.808594 -3.15625 1.820312 -3.167969 1.832031 -3.167969 Z M 2.695312 -5.527344 C 3.035156 -5.839844 3.53125 -5.824219 4.003906 -5.542969 C 4.34375 -5.328125 4.613281 -4.746094 4.449219 -4.421875 C 4.382812 -4.289062 4.152344 -4.167969 3.992188 -4.152344 C 3.304688 -4.085938 2.617188 -4.074219 1.875 -4.046875 C 2.050781 -4.613281 2.265625 -5.136719 2.695312 -5.527344 Z M 2.695312 -5.527344 "/></g></g></g></svg>